<?xml version="1.0" encoding="utf-8"?>
<!-- Generator: Adobe Illustrator 12.0.0, SVG Export Plug-In . SVG Version: 6.00 Build 51448)  -->
<!DOCTYPE svg PUBLIC "-//W3C//DTD SVG 1.1//EN" "http://www.w3.org/Graphics/SVG/1.1/DTD/svg11.dtd" [
	<!ENTITY ns_svg "http://www.w3.org/2000/svg">
	<!ENTITY ns_xlink "http://www.w3.org/1999/xlink">
]>
<svg  version="1.1" id="Layer_1" xmlns="&ns_svg;" xmlns:xlink="&ns_xlink;" width="801" height="199.322"
	 viewBox="0 0 801 199.322" overflow="visible" enable-background="new 0 0 801 199.322" xml:space="preserve">
<g id="XMLID_1_">
	<g>
		<polygon fill="#72C65F" points="800.5,0.5 800.5,198.83 700.5,181.02 700.5,0.5 		"/>
		<polygon fill="#72C65F" points="100.5,0.5 100.5,72.53 0.5,56.17 0.5,0.5 		"/>
		<polygon fill="#72C65F" points="700.5,0.5 700.5,181.02 100.5,72.53 100.5,0.5 		"/>
	</g>
	<g>
		<line fill="none" stroke="#72C65F" x1="100.5" y1="72.53" x2="700.5" y2="181.02"/>
		<line fill="none" stroke="#72C65F" x1="700.5" y1="181.02" x2="700.5" y2="0.5"/>
		<line fill="none" stroke="#72C65F" x1="700.5" y1="0.5" x2="100.5" y2="0.5"/>
		<line fill="none" stroke="#72C65F" x1="100.5" y1="0.5" x2="100.5" y2="72.53"/>
		<line fill="none" stroke="#72C65F" x1="100.5" y1="72.53" x2="0.5" y2="56.17"/>
		<line fill="none" stroke="#72C65F" x1="0.5" y1="0.5" x2="0.5" y2="56.17"/>
		<line fill="none" stroke="#72C65F" x1="100.5" y1="0.5" x2="0.5" y2="0.5"/>
		<line fill="none" stroke="#72C65F" x1="700.5" y1="0.5" x2="800.5" y2="0.5"/>
		<line fill="none" stroke="#72C65F" x1="800.5" y1="0.5" x2="800.5" y2="198.83"/>
		<line fill="none" stroke="#72C65F" x1="800.5" y1="198.83" x2="700.5" y2="181.02"/>
	</g>
</g>
</svg>
